<svg xmlns="http://www.w3.org/2000/svg" viewBox="0 0 100 150">
  <!-- Lantern top -->
  <rect x="45" y="0" width="10" height="10" fill="#ffcc00" />
  <path d="M45,10 L40,15 L60,15 L55,10 Z" fill="#ffcc00" />
  
  <!-- Lantern body -->
  <rect x="40" y="15" width="20" height="85" rx="10" fill="#e60000" stroke="#ffcc00" stroke-width="2" />
  
  <!-- Decorative patterns -->
  <path d="M45,25 L55,25 M45,35 L55,35 M45,45 L55,45 M45,55 L55,55 M45,65 L55,65 M45,75 L55,75 M45,85 L55,85" 
        stroke="#ffcc00" stroke-width="1" />
  
  <circle cx="50" cy="50" r="7" fill="#ffcc00" />
  <text x="50" y="53" font-family="Arial" font-size="8" fill="#e60000" text-anchor="middle">удЈ</text>
  
  <!-- Lantern bottom -->
  <path d="M40,100 L35,105 L65,105 L60,100 Z" fill="#ffcc00" />
  <rect x="35" y="105" width="30" height="5" fill="#ffcc00" />
  
  <!-- Tassel -->
  <path d="M50,110 C50,130 45,130 45,150 M50,110 C50,130 55,130 55,150" 
        stroke="#ffcc00" stroke-width="2" fill="none" />
</svg>
